


<svg version="1.0" xmlns="http://www.w3.org/2000/svg" width="700.000000pt" height="700.000000pt" viewBox="0 0 700.000000 700.000000" preserveAspectRatio="xMidYMid meet">
<metadata>
This file was generated online using https://www.svgcreator.com/download/

Credit:

Created by potrace 1.12, written by Peter Selinger 2001-2015
</metadata>
<g transform="translate(0.000000,700.000000) scale(0.100000,-0.100000)" fill="#000000" stroke="none">
<path d="M2019 6314 c-651 -377 -1206 -699 -1234 -715 -132 -75 -241 -191
-305 -324 -81 -168 -75 -27 -75 -1700 0 -1411 1 -1493 18 -1555 53 -187 161
-334 327 -443 44 -28 1355 -788 2283 -1323 243 -140 346 -172 525 -161 103 6
202 32 287 74 45 23 2047 1178 2360 1362 196 115 302 230 372 403 55 134 54
104 51 1689 l-3 1464 -23 70 c-39 114 -99 219 -170 296 -73 79 -123 115 -296
214 -94 54 -120 65 -127 54 -5 -8 -53 -87 -106 -176 -53 -89 -99 -160 -102
-158 -4 1 -409 245 -901 540 -492 295 -897 538 -899 540 -1 2 41 76 94 165 53
89 95 163 94 164 -2 1 -67 39 -144 83 -238 137 -179 123 -533 123 l-308 0
-1185 -686z m2504 -296 c130 -79 237 -146 237 -150 0 -6 -755 -1273 -766
-1287 -2 -2 -22 4 -46 14 -171 68 -370 5 -474 -152 -58 -88 -76 -153 -71 -263
4 -118 27 -171 108 -252 l56 -57 -750 -1253 c-412 -689 -752 -1255 -754 -1258
-12 -13 -33 40 -33 83 0 43 4 53 35 84 l36 36 39 246 c38 236 332 2154 406
2641 19 129 39 246 43 259 5 19 25 30 96 55 118 42 293 133 419 216 413 274
759 649 1103 1198 l14 23 32 -20 c18 -12 139 -85 270 -163z m641 -384 c143
-86 265 -160 269 -164 5 -4 -30 -77 -76 -162 -254 -458 -407 -912 -458 -1353
-21 -182 -12 -526 16 -608 2 -7 -572 -444 -1277 -972 l-1281 -960 -21 -54
c-16 -41 -30 -59 -56 -73 -36 -19 -88 -21 -82 -3 2 6 341 573 754 1262 l749
1251 47 -21 c38 -18 66 -22 142 -22 87 0 101 3 161 32 121 59 214 184 238 320
25 134 -31 288 -130 361 l-38 28 387 647 c213 355 389 646 391 647 2 0 121
-70 265 -156z"></path>
</g>
</svg>